# xmcd
# Track frame offsets:
# 150
# 21281
# 34172
# 56411
# 76924
# 97622
# 114315
# 134972
# 156960
# 174558
# 190176
# 204433
#
# Disc length: 2968 seconds
# Revision: 0
# Processed by: cddbd v1.4PL0 Copyright (c) Steve Scherf et al.
# Submitted via: VisiTrax 2.9.5.181 - For more info visit www.synapsa.com
#
DISCID=980b960c
DTITLE=Rivers, Johnny - Last Train To Memphis
DYEAR=1998
DGENRE=Blues
TTITLE0=Down At The House Of Blues
TTITLE1=Chicago Bound
TTITLE2=Closer To You
TTITLE3=Joker In The Wind
TTITLE4=Uphill Peace Of Mind
TTITLE5=Last Train To Memphis
TTITLE6=Don't Let The Rain come Down
TTITLE7=Treat A Dog
TTITLE8=Rollin' Stone
TTITLE9=Can't Help Myself
TTITLE10=Then You Can Tell Me Goodbye
TTITLE11=Gypsy Wind
EXTD=
EXTT0=
EXTT1=
EXTT2=
EXTT3=
EXTT4=
EXTT5=
EXTT6=
EXTT7=
EXTT8=
EXTT9=
EXTT10=
EXTT11=
PLAYORDER=
